<?xml version="1.0" encoding="utf-8"?>
<!-- Uploaded to: SVG Repo, www.svgrepo.com, Generator: SVG Repo Mixer Tools -->
<svg width="800px" height="800px" viewBox="0 0 1024 1024" class="icon"  version="1.1" xmlns="http://www.w3.org/2000/svg">
<path d="M534.1 639.7C652.5 537.4 711.7 445.8 711.7 365c0-127-102.7-212.1-195-212.1s-195 85.1-195 212.1c0 80.8 59.2 172.3 177.7 274.7 9.9 8.6 24.7 8.6 34.7 0z" fill="#8CFF8F" />
<path d="M516.7 672.7c-12.5 0-24.9-4.3-34.8-12.9C356.2 551.2 295.1 454.7 295.1 365c0-142.8 114.6-238.7 221.6-238.7S738.3 222.2 738.3 365c0 89.7-61.1 186.2-186.9 294.8-9.8 8.6-22.3 12.9-34.7 12.9z m0-493.2c-79.7 0-168.4 76.2-168.4 185.5 0 72.3 56.7 158 168.4 254.6C628.5 523 685.1 437.3 685.1 365c0-109.3-88.7-185.5-168.4-185.5z" fill="#333333" />
<path d="M516.7 348m-97.5 0a97.5 97.5 0 1 0 195 0 97.5 97.5 0 1 0-195 0Z" fill="#FFFFFF" />
<path d="M516.7 472.1c-68.4 0-124.1-55.7-124.1-124.1s55.7-124.1 124.1-124.1S640.8 279.5 640.8 348 585.1 472.1 516.7 472.1z m0-195.1c-39.1 0-70.9 31.8-70.9 70.9 0 39.1 31.8 70.9 70.9 70.9s70.9-31.8 70.9-70.9c0-39.1-31.8-70.9-70.9-70.9z" fill="#333333" />
</svg>